# xmcd
#
# Track frame offsets:
#	183
#	11245
#	23420
#	34383
#	47408
#	57183
#	68783
#	82420
#	93095
#	107870
#	130170
#	144295
#	153820
#	166795
#	180008
#	193645
#	203558
#	217720
#	231470
#	244958
#	257520
#	270283
#
# Disc length: 3781 seconds
#
# Revision: 1
# Processed by: cddbd v1.4PL0 Copyright (c) Steve Scherf et al.
# Submitted via: EasyCDDAExtractor 5.1.0
#
DISCID=180ec316
DTITLE=Billy Stewart - Every Day I Have The Blues
DYEAR=1990
DGENRE=Blues
TTITLE0=Billy's Blues Part Two
TTITLE1=Fat Boy
TTITLE2=Reap What You Sow
TTITLE3=Sugar And Spice
TTITLE4=Strange Feeling
TTITLE5=Count Me Out
TTITLE6=I Do Love You
TTITLE7=Keep Lovin'
TTITLE8=Sitting In The Park
TTITLE9=Summertime
TTITLE10=How Nice It Is
TTITLE11=Because I Love You
TTITLE12=Love Me
TTITLE13=Every day I Have The Blues
TTITLE14=Secret Love
TTITLE15=Temptation
TTITLE16=Why Do I Love You So
TTITLE17=Cross My Heart
TTITLE18=Golly Golly Gee
TTITLE19=Tell Me The Truth
TTITLE20=Ine More Time
TTITLE21=I'm In Love
EXTD=
EXTT0=
EXTT1=
EXTT2=
EXTT3=
EXTT4=
EXTT5=
EXTT6=
EXTT7=
EXTT8=
EXTT9=
EXTT10=
EXTT11=
EXTT12=
EXTT13=
EXTT14=
EXTT15=
EXTT16=
EXTT17=
EXTT18=
EXTT19=
EXTT20=
EXTT21=
PLAYORDER=
